<svg width="24" height="24" viewBox="0 0 24 24" fill="none" xmlns="http://www.w3.org/2000/svg">
<path d="M13.9785 12L23.9277 0.482209C24.0945 0.290798 23.9542 0 23.6965 0H20.6719C20.4938 0 20.3232 0.0773005 20.2057 0.209816L12 9.71043L3.79427 0.209816C3.68056 0.0773005 3.51001 0 3.32808 0H0.303518C0.0457859 0 -0.0944508 0.290798 0.0723169 0.482209L10.0215 12L0.0723169 23.5178C0.0349594 23.5605 0.0109932 23.6126 0.00326259 23.6681C-0.00446798 23.7236 0.00436185 23.7801 0.0287047 23.8309C0.0530476 23.8817 0.0918809 23.9246 0.140593 23.9546C0.189306 23.9845 0.245852 24.0003 0.303518 24H3.32808C3.50622 24 3.67677 23.9227 3.79427 23.7902L12 14.2896L20.2057 23.7902C20.3194 23.9227 20.49 24 20.6719 24H23.6965C23.9542 24 24.0945 23.7092 23.9277 23.5178L13.9785 12Z" fill="white"/>
</svg>
